<svg xmlns="http://www.w3.org/2000/svg" xmlns:xlink="http://www.w3.org/1999/xlink" viewBox="0,0,256,256" width="48px" height="48px" fill-rule="nonzero"><g fill="#ffffff" fill-rule="nonzero" stroke="none" stroke-width="1" stroke-linecap="butt" stroke-linejoin="miter" stroke-miterlimit="10" stroke-dasharray="" stroke-dashoffset="0" font-family="none" font-weight="none" font-size="none" text-anchor="none" style="mix-blend-mode: normal"><path d="M0,256v-256h256v256z" id="bgRectangle"></path></g><g fill="#1e1b4b" fill-rule="nonzero" stroke="none" stroke-width="1" stroke-linecap="butt" stroke-linejoin="miter" stroke-miterlimit="10" stroke-dasharray="" stroke-dashoffset="0" font-family="none" font-weight="none" font-size="none" text-anchor="none" style="mix-blend-mode: normal"><g transform="scale(4,4)"><path d="M32,15c-14.579,0 -26,7.467 -26,17c0,9.533 11.421,17 26,17c14.579,0 26,-7.467 26,-17c0,-9.533 -11.421,-17 -26,-17zM32,19c11.925,0 22,5.953 22,13c0,7.047 -10.075,13 -22,13c-11.925,0 -22,-5.953 -22,-13c0,-7.047 10.075,-13 22,-13zM30.31445,22.75195c-0.03025,0.00525 -0.0565,0.03258 -0.0625,0.08008c0,0 -0.46592,3.01444 -1.16992,5.02344c-0.052,0.147 -0.16745,0.26345 -0.31445,0.31445c-3.299,1.132 -7.57242,-1.22723 -6.48242,-3.99023c0.155,-0.393 -0.25339,-0.77781 -0.65039,-0.63281c-5.24,1.91 -8.63477,4.78116 -8.63477,8.53516c0,2.721 1.8503,4.85105 4.9043,6.74805c0.338,0.21 0.761,-0.05708 0.75,-0.45508c-0.106,-3.722 2.94881,-5.94303 5.63281,-2.45703c0.216,0.279 0.63527,0.24822 0.82227,-0.05078c1.564,-2.501 4.79078,-1.21097 6.42578,2.83203c0.086,0.213 0.27584,0.31836 0.46484,0.31836c0.189,0 0.37884,-0.10536 0.46484,-0.31836c1.635,-4.043 4.86178,-5.33303 6.42578,-2.83203c0.187,0.299 0.60727,0.32978 0.82227,0.05078c2.684,-3.486 5.73881,-1.26497 5.63281,2.45703c-0.012,0.398 0.411,0.66508 0.75,0.45508c3.054,-1.897 4.9043,-4.02705 4.9043,-6.74805c0,-3.754 -3.39477,-6.62516 -8.63477,-8.53516c-0.397,-0.145 -0.80344,0.23981 -0.64844,0.63281c1.09,2.763 -3.18538,5.12223 -6.48437,3.99023c-0.148,-0.05 -0.26245,-0.16745 -0.31445,-0.31445c-0.704,-2.009 -1.16797,-5.02344 -1.16797,-5.02344c-0.012,-0.095 -0.10748,-0.11553 -0.14648,-0.01953l-0.60352,1.26953c0,0 -0.5,-0.25 -1,-0.25c-0.5,0 -1,0.25 -1,0.25l-0.60156,-1.26953c-0.02,-0.0485 -0.05373,-0.0658 -0.08398,-0.06055z"></path></g></g></svg>