<svg xmlns="http://www.w3.org/2000/svg" xmlns:xlink="http://www.w3.org/1999/xlink" viewBox="0,0,256,256" width="48px" height="48px" fill-rule="nonzero"><g fill="#ffffff" fill-rule="nonzero" stroke="none" stroke-width="1" stroke-linecap="butt" stroke-linejoin="miter" stroke-miterlimit="10" stroke-dasharray="" stroke-dashoffset="0" font-family="none" font-weight="none" font-size="none" text-anchor="none" style="mix-blend-mode: normal"><path d="M0,256v-256h256v256z" id="bgRectangle"></path></g><g fill="#1e1b4b" fill-rule="nonzero" stroke="none" stroke-width="1" stroke-linecap="butt" stroke-linejoin="miter" stroke-miterlimit="10" stroke-dasharray="" stroke-dashoffset="0" font-family="none" font-weight="none" font-size="none" text-anchor="none" style="mix-blend-mode: normal"><g transform="scale(4,4)"><path d="M32,10c-9.831,0 -20,2.20825 -20,5.90625v17.09375c0,5.32 6.393,19.451 20,22c13.607,-2.549 20,-16.68 20,-22v-17.09375c0,-3.698 -10.169,-5.90625 -20,-5.90625zM32,14c9.632,0 14.612,1.9115 16,2.6875v16.3125c0,3.20736 -4.25502,13.76226 -14.04102,17.3418c0.01386,-0.11411 0.04102,-0.2203 0.04102,-0.3418c0,-2 -0.5,-4 -0.5,-5c0,-1 1.5,-2 1.5,-2h-6c0,0 1.5,1 1.5,2c0,1 -0.5,3 -0.5,5c0,0.1215 0.02715,0.22768 0.04102,0.3418c-9.786,-3.57954 -14.04102,-14.13444 -14.04102,-17.3418v-16.3125c1.388,-0.776 6.368,-2.6875 16,-2.6875zM23.55078,20c-5.168,0 -7.05078,4 -7.05078,4c0,0 2,-2 6,-2c4.651,0 6.42255,2.44756 6.43555,2.47656l1.56445,-1.47656c0,0 -2.15322,-3 -6.94922,-3zM40.44922,20c-4.796,0 -6.94922,3 -6.94922,3l1.56445,1.47656c0.013,-0.029 1.78455,-2.47656 6.43555,-2.47656c4,0 6,2 6,2c0,0 -1.88278,-4 -7.05078,-4zM23.9375,26.5332c-1.845,0 -2.9045,1.0608 -3.9375,1.9668c1.033,0.906 2.0935,1.5 3.9375,1.5c1.844,0 4.0295,-0.594 5.0625,-1.5c0,0 -3.2175,-1.9668 -5.0625,-1.9668zM40.0625,26.5332c-1.844,0 -5.0625,1.9668 -5.0625,1.9668c1.033,0.906 3.2175,1.5 5.0625,1.5c1.846,0 2.9045,-0.594 3.9375,-1.5c-1.034,-0.906 -2.0925,-1.9668 -3.9375,-1.9668zM20,36l-1,0.55664c0,0 1.82217,4.44336 4.57617,4.44336h4.42383c1.785,0 4,-2 4,-2c0,0 2.215,2 4,2h4.42383c2.754,0 4.57617,-4.44336 4.57617,-4.44336l-1,-0.55664c0,0 -1.72531,3 -2.82031,3h-4.67969c-1.157,0 -3,-3 -3,-3h-3c0,0 -1.843,3 -3,3h-4.67969c-1.095,0 -2.82031,-3 -2.82031,-3z"></path></g></g></svg>